<svg width="24" height="24" viewBox="0 0 24 24" fill="none" xmlns="http://www.w3.org/2000/svg">
<path d="M20.5 15.0357V18.6786C20.5 19.683 19.683 20.5 18.6786 20.5H15.0357C14.0313 20.5 13.2143 19.683 13.2143 18.6786V15.0357C13.2143 14.0313 14.0313 13.2143 15.0357 13.2143H18.6786C19.683 13.2143 20.5 14.0313 20.5 15.0357ZM18.6786 3.5H15.0357C14.0313 3.5 13.2143 4.31703 13.2143 5.32143V8.96429C13.2143 9.96868 14.0313 10.7857 15.0357 10.7857H18.6786C19.683 10.7857 20.5 9.96868 20.5 8.96429V5.32143C20.5 4.31703 19.683 3.5 18.6786 3.5ZM8.96429 13.2143H5.32143C4.31703 13.2143 3.5 14.0313 3.5 15.0357V18.6786C3.5 19.683 4.31703 20.5 5.32143 20.5H8.96429C9.96868 20.5 10.7857 19.683 10.7857 18.6786V15.0357C10.7857 14.0313 9.96868 13.2143 8.96429 13.2143ZM8.96429 3.5H5.32143C4.31703 3.5 3.5 4.31703 3.5 5.32143V8.96429C3.5 9.96868 4.31703 10.7857 5.32143 10.7857H8.96429C9.96868 10.7857 10.7857 9.96868 10.7857 8.96429V5.32143C10.7857 4.31703 9.96868 3.5 8.96429 3.5Z" fill="#FFFF"/>
</svg>
