<svg width="26" height="26" viewBox="0 0 26 26" fill="none" xmlns="http://www.w3.org/2000/svg">
<path d="M19.6719 11.7632C21.2512 11.5413 22.4672 10.1873 22.4706 8.54676C22.4706 6.93002 21.292 5.58954 19.7466 5.33594" stroke="white" stroke-width="1.5" stroke-linecap="round" stroke-linejoin="round"/>
<path d="M21.75 15.5547C23.2796 15.7834 24.3472 16.3189 24.3472 17.4228C24.3472 18.1824 23.8445 18.6761 23.0316 18.9863" stroke="white" stroke-width="1.5" stroke-linecap="round" stroke-linejoin="round"/>
<path fill-rule="evenodd" clip-rule="evenodd" d="M12.8794 16.0234C9.2406 16.0234 6.13281 16.5748 6.13281 18.7769C6.13281 20.9778 9.22136 21.545 12.8794 21.545C16.5182 21.545 19.6248 20.9993 19.6248 18.7961C19.6248 16.5929 16.5374 16.0234 12.8794 16.0234Z" stroke="white" stroke-width="1.5" stroke-linecap="round" stroke-linejoin="round"/>
<path fill-rule="evenodd" clip-rule="evenodd" d="M12.8785 12.8818C15.2662 12.8818 17.2022 10.947 17.2022 8.55811C17.2022 6.17038 15.2662 4.23438 12.8785 4.23438C10.4907 4.23438 8.55472 6.17038 8.55472 8.55811C8.54566 10.9379 10.4669 12.8739 12.8468 12.8818H12.8785Z" stroke="white" stroke-width="1.5" stroke-linecap="round" stroke-linejoin="round"/>
<path d="M6.07996 11.7632C4.49946 11.5413 3.28465 10.1873 3.28125 8.54676C3.28125 6.93002 4.45983 5.58954 6.00524 5.33594" stroke="white" stroke-width="1.5" stroke-linecap="round" stroke-linejoin="round"/>
<path d="M3.99562 15.5547C2.46607 15.7834 1.39844 16.3189 1.39844 17.4228C1.39844 18.1824 1.90112 18.6761 2.71401 18.9863" stroke="white" stroke-width="1.5" stroke-linecap="round" stroke-linejoin="round"/>
</svg>
